<svg width="20" height="104" viewBox="0 0 20 104" fill="none" xmlns="http://www.w3.org/2000/svg">
<path d="M0.687999 13.584C0.687999 23.784 5.68 25.56 7.936 25.56L8.2 25.56L8.2 19.632C7.792 19.488 5.032 18.912 5.032 13.128C5.032 7.92 7.816 6.504 9.928 6.504L10.216 6.504C12.448 6.504 14.848 7.728 14.848 13.08C14.848 18.744 12.352 19.464 11.872 19.608L11.872 25.536L12.136 25.536C14.224 25.536 19.168 23.928 19.168 13.584L19.168 12.6C19.168 2.04 13.576 0.647999 10.336 0.647999L9.64 0.647999C6.472 0.647999 0.688 2.256 0.687999 12.6L0.687999 13.584ZM0.999999 29.6608L0.999998 35.0128L7.096 35.0128C9.208 35.0128 10.6 36.5728 10.6 38.9728C10.6 41.3488 9.376 42.4288 7.384 42.4288L0.999998 42.4288L0.999998 47.8288L9.16 47.8288C11.656 47.8288 14.2 46.0048 14.2 41.5408L14.2 41.3728C14.2 37.5328 12.328 35.5888 11.752 35.0128L18.856 35.0128L18.856 29.6608L0.999999 29.6608ZM18.856 57.78L18.856 52.428L15.16 52.428L15.16 57.78L18.856 57.78ZM13.912 57.78L13.912 52.428L0.999998 52.428L0.999997 57.78L13.912 57.78ZM0.999997 62.4452L0.999997 67.7972L7.096 67.7972C9.208 67.7972 10.6 69.3572 10.6 71.7572C10.6 74.1332 9.376 75.2132 7.384 75.2132L0.999997 75.2132L0.999996 80.6132L9.16 80.6132C11.656 80.6132 14.2 78.8372 14.2 74.3252L14.2 74.1572C14.2 70.3172 12.352 68.3972 11.704 67.7492L13.912 67.7492L13.912 62.4452L0.999997 62.4452ZM6.736 96.6124C5.2 96.6124 3.664 94.7644 3.664 91.9084C3.664 90.0844 4.432 89.5564 5.128 89.5564L5.152 89.5564C5.896 89.5564 6.136 90.1324 6.352 91.5004L7.144 96.6124L6.736 96.6124ZM2.776 96.7564C1.552 96.9484 0.999996 97.7644 0.999996 98.7964L0.999995 103.14L4.504 103.14L4.504 102.444C4.504 101.892 4.768 101.772 5.152 101.772L10.096 101.772C11.968 101.772 14.272 101.292 14.272 93.8044L14.272 92.4844C14.272 85.2844 11.608 84.7804 9.904 84.7804L9.856 84.7804L9.856 89.7484C10.288 89.8204 11.296 89.9404 11.296 93.1324L11.296 93.2524C11.296 96.3964 10.72 96.6124 10.24 96.6124C9.832 96.6124 9.64 96.3964 9.568 95.7964L9.016 89.8924C8.656 86.0284 7.528 84.4684 5.152 84.4684L4.984 84.4684C2.776 84.4684 0.759996 86.1244 0.759996 90.4684L0.759996 90.7804C0.759996 94.5724 2.08 96.2044 2.776 96.7564Z" fill="#FF4656"/>
</svg>
